<svg enable-background="new 0 0 34 34" viewBox="0 0 34 34" xmlns="http://www.w3.org/2000/svg"><circle cx="17" cy="17" fill="#fff" r="16.5"/><path d="m17.1 21.5c-1 0-1.9-.2-2.7-.5-.8-.4-1.6-.9-2.2-1.5s-1.1-1.4-1.5-2.2c-.4-.9-.6-1.8-.6-2.7 0-1 .2-1.9.6-2.7.4-.9.9-1.6 1.5-2.3.6-.6 1.4-1.1 2.3-1.5.8-.4 1.8-.6 2.7-.6 1 0 1.9.2 2.7.6s1.6.9 2.2 1.5 1.1 1.4 1.5 2.3c.4.8.6 1.8.6 2.7 0 1-.2 1.9-.6 2.7s-.9 1.6-1.5 2.2-1.4 1.1-2.2 1.5c-.9.4-1.8.5-2.8.5z" fill="#fdcb00"/><path d="m17.1 21.9c-1 0-2-.2-2.9-.6s-1.7-.9-2.3-1.6c-.7-.7-1.2-1.5-1.6-2.3-.4-.9-.6-1.9-.6-2.9s.2-2 .6-2.9.9-1.7 1.6-2.4 1.5-1.2 2.4-1.6c1.8-.8 4-.8 5.8 0 .9.4 1.7.9 2.3 1.6.7.7 1.2 1.5 1.6 2.4s.6 1.9.6 2.9-.2 2-.6 2.9-.9 1.7-1.6 2.3c-.7.7-1.4 1.2-2.3 1.6-1 .5-2 .6-3 .6zm0-14c-.9 0-1.8.2-2.6.5s-1.5.8-2.1 1.4-1.1 1.3-1.4 2.1c-.4.8-.5 1.7-.5 2.6s.2 1.8.5 2.6c.4.8.8 1.5 1.4 2.1s1.3 1.1 2.1 1.4c1.6.7 3.6.7 5.2 0 .8-.4 1.5-.8 2.1-1.4s1.1-1.3 1.4-2.1c.4-.8.5-1.7.5-2.6s-.2-1.8-.5-2.6c-.4-.8-.8-1.5-1.4-2.1s-1.3-1.1-2.1-1.4-1.7-.5-2.6-.5z" fill="#f28dff"/><path d="m9 26.3c.7-.6 1.5-1.1 2.4-1.5.8-.4 1.8-.7 2.7-1 .9-.2 1.9-.3 2.9-.3h.5c1 0 1.9.1 2.8.3s1.8.5 2.7.9c.8.4 1.7.9 2.4 1.5s1.4 1.3 2 2.1l.4.5c3.2-2.9 5.2-7.1 5.2-11.8 0-8.8-7.2-16-16-16s-16 7.2-16 16c0 4.8 2.1 9.1 5.5 12l.5-.6c.5-.8 1.2-1.5 2-2.1z" fill="none"/><path d="m17.8 33c3.5-.2 6.8-1.5 9.3-3.6l-.4-.5c-.6-.7-1.2-1.4-1.9-1.9-.7-.6-1.4-1-2.2-1.4s-1.6-.7-2.5-.9-1.8-.3-2.7-.3h-.5c-.9 0-1.8.1-2.7.3s-1.7.5-2.5.9-1.5.9-2.2 1.4c-.7.6-1.3 1.2-1.9 2l-.5.6c2.5 2 5.7 3.3 9.1 3.4z" fill="#f28dff"/><path d="m27.3 28.3c-.6-.8-1.3-1.5-2-2.1s-1.5-1.1-2.4-1.5c-.8-.4-1.7-.7-2.7-.9-.9-.2-1.9-.3-2.8-.3h-.5c-1 0-1.9.1-2.9.3-.9.2-1.9.5-2.7 1-.9.4-1.7.9-2.4 1.5-.8.6-1.4 1.3-2 2.1l-.4.6c.1.1.2.2.3.3s.2.2.3.2l.5-.6c.5-.7 1.2-1.4 1.9-2s1.4-1.1 2.2-1.4c.8-.4 1.6-.7 2.5-.9s1.8-.3 2.7-.3h.5c.9 0 1.8.1 2.7.3s1.7.5 2.5.9 1.5.9 2.2 1.4c.7.6 1.3 1.2 1.9 1.9l.4.5.3-.3.3-.3z" fill="#ff0051"/><path d="m17 34c-9.4 0-17-7.6-17-17s7.6-17 17-17 17 7.6 17 17-7.6 17-17 17zm0-33c-8.8 0-16 7.2-16 16s7.2 16 16 16 16-7.2 16-16-7.2-16-16-16z" fill="#dddfe4"/></svg>